<?xml version="1.0" encoding="utf-8"?>
<!-- Generator: Adobe Illustrator 16.0.0, SVG Export Plug-In . SVG Version: 6.00 Build 0)  -->
<!DOCTYPE svg PUBLIC "-//W3C//DTD SVG 1.1//EN" "http://www.w3.org/Graphics/SVG/1.1/DTD/svg11.dtd">
<svg version="1.1"
	 id="Layer_1" xmlns:rdf="http://www.w3.org/1999/02/22-rdf-syntax-ns#" xmlns:cc="http://creativecommons.org/ns#" xmlns:dc="http://purl.org/dc/elements/1.1/"
	 xmlns="http://www.w3.org/2000/svg" xmlns:xlink="http://www.w3.org/1999/xlink" x="0px" y="0px" width="175.75px"
	 height="95.652px" viewBox="0 0 175.75 95.652" enable-background="new 0 0 175.75 95.652" xml:space="preserve">
<g>
	<path d="M172.44,11.025C165.91,1.142,152.62,0,143.18,0H40.771L24.398,38.435H42.46h0.176l-7.993,18.771h-18.27L0,95.653h95.337
		l11.443-26.87h17.279c30.508,0,40.793-14.281,47.365-29.715c2.678-6.289,7.662-17.994,1.02-28.043H172.44z"/>
	<path fill="#6358FE" d="M164.07,16.561c-2.941-4.45-9.578-6.521-20.889-6.521H47.403l-7.817,18.355h18.237L41.28,67.244H23.011
		l-7.823,18.369h73.513l7.822-18.369H77.997l3.622-8.504h42.442c25.928,0,32.83-11.166,38.129-23.606
		C164.996,28.542,167.453,21.679,164.07,16.561z M94.541,28.395h31.396c2.264,0,3.914,0.535,4.531,1.468
		c0.713,1.077,0.141,2.833-0.264,3.782c-1.771,4.157-5.982,6.74-10.99,6.74H89.436L94.541,28.395z"/>
	<path fill="#9790FE" d="M143.18,11.939H48.656l-6.199,14.558h18.237L42.533,69.144H24.264l-6.205,14.57h69.384l6.203-14.57H75.123
		l5.239-12.303h43.698c25.045,0,31.338-10.611,36.381-22.452C165.48,22.55,168.225,11.939,143.18,11.939L143.18,11.939z
		 M119.213,42.284H86.56l6.724-15.788h32.652c5.779,0,8.109,2.973,6.016,7.894C129.854,39.311,124.992,42.284,119.213,42.284z"/>
</g>
</svg>
