<?xml version="1.0" encoding="UTF-8"?>
<svg width="256px" height="256px" viewBox="0 0 256 256" version="1.1" xmlns="http://www.w3.org/2000/svg" xmlns:xlink="http://www.w3.org/1999/xlink">
    <!-- Generator: Sketch 42 (36781) - http://www.bohemiancoding.com/sketch -->
    <title>icon-chat</title>
    <desc>Created with Sketch.</desc>
    <defs></defs>
    <g id="Page-1" stroke="none" stroke-width="1" fill="none" fill-rule="evenodd">
        <g id="icon-chat">
            <ellipse id="Oval-3" fill="#FFFFFF" cx="130" cy="130" rx="112" ry="112"></ellipse>
            <g id="Chat" transform="translate(66.000000, 66.000000)" stroke="#3C3F43" stroke-width="6" fill="#D2E7FF" stroke-linecap="round" stroke-linejoin="round">
                <path d="M111.341972,104.738617 L121.997976,104.738617 C125.311791,104.738617 128,102.049016 128,98.7312251 L128,6.00739181 C128,2.6943127 125.312802,0 121.997976,0 L6.0020237,0 C2.68820941,0 0,2.68960093 0,6.00739181 L0,98.7312251 C0,102.044304 2.68719754,104.738617 6.0020237,104.738617 L89.9398047,104.738617 C94.2840291,128 114.053571,128.000001 114.053571,128 C114.053571,127.999999 109.563435,117.73603 111.341972,104.738617 Z" id="Layer-1" transform="translate(64.000000, 64.000000) scale(-1, 1) translate(-64.000000, -64.000000) "></path>
            </g>
        </g>
    </g>
</svg>