<?xml version="1.0" encoding="UTF-8"?>
<svg width="256px" height="256px" viewBox="0 0 256 256" version="1.1" xmlns="http://www.w3.org/2000/svg" xmlns:xlink="http://www.w3.org/1999/xlink">
    <!-- Generator: Sketch 42 (36781) - http://www.bohemiancoding.com/sketch -->
    <title>icon-pencil</title>
    <desc>Created with Sketch.</desc>
    <defs></defs>
    <g id="Page-1" stroke="none" stroke-width="1" fill="none" fill-rule="evenodd">
        <g id="icon-pencil">
            <ellipse id="Oval-3" fill="#FFFFFF" cx="130" cy="130" rx="112" ry="112"></ellipse>
            <g id="Pencil" transform="translate(66.000000, 66.000000)">
                <path d="M121.714297,6.02157949 C113.6864,-2.00631795 100.620554,-2.00631795 92.5926564,6.02157949 L84.1709128,14.440041 C84.2004513,14.4662974 84.2299897,14.4892718 84.2562462,14.5122462 L76.5729641,22.1922462 C76.3530667,22.3169641 76.1462974,22.4679385 75.9592205,22.6550154 L7.94198974,90.6722462 C7.85337436,90.7575795 7.77460513,90.852759 7.7024,90.9479385 C7.68598974,90.9709128 7.66957949,90.9938872 7.65316923,91.0168615 C7.58424615,91.112041 7.52188718,91.2105026 7.46609231,91.3122462 C7.46281026,91.3155282 7.46281026,91.3188103 7.45952821,91.3220923 C7.40045128,91.4336821 7.35122051,91.5485538 7.30527179,91.6634256 C7.29870769,91.6831179 7.29214359,91.7028103 7.28557949,91.7225026 C7.24619487,91.8340923 7.21337436,91.9489641 7.1904,92.0638359 C7.1904,92.0671179 7.18711795,92.0736821 7.18711795,92.0802462 L7.1838359,92.0933744 C7.18055385,92.0999385 7.18055385,92.1065026 7.18055385,92.1097846 L0.721476923,123.735631 C0.5344,124.648041 0.819938462,125.596554 1.47963077,126.256246 C2.00475897,126.781374 2.71368205,127.070195 3.44557949,127.070195 C3.62937436,127.070195 3.81645128,127.050503 4.00024615,127.011118 L35.6260923,120.555323 C35.6293744,120.555323 35.6326564,120.555323 35.6392205,120.552041 L35.6556308,120.548759 C35.6621949,120.548759 35.668759,120.545477 35.6753231,120.545477 C35.7869128,120.519221 35.9017846,120.489682 36.0100923,120.450297 C36.0297846,120.443733 36.052759,120.437169 36.0724513,120.427323 C36.1873231,120.384656 36.3021949,120.335426 36.4137846,120.276349 C36.4170667,120.273067 36.4203487,120.269785 36.4269128,120.269785 C36.5286564,120.21399 36.6238359,120.151631 36.7190154,120.082708 C36.7419897,120.066297 36.7649641,120.049887 36.7879385,120.033477 C36.8831179,119.95799 36.9750154,119.879221 37.0636308,119.793887 L105.080862,51.7766564 C105.267938,51.5895795 105.418913,51.3828103 105.543631,51.1596308 L115.770503,40.932759 C115.796759,40.9557333 115.826297,40.9787077 115.852554,41.0049641 L121.714297,35.1432205 C129.742195,27.1153231 129.742195,14.0494769 121.714297,6.02157949 L121.714297,6.02157949 Z" id="Path" fill="#3C3F43"></path>
                <path d="M117.785682,31.2146051 L117.513272,31.4870154 L96.2488615,10.2226051 L96.5212718,9.95019487 C99.4521436,7.01932308 103.30199,5.55224615 107.151836,5.55224615 C111.001682,5.55224615 114.85481,7.01932308 117.785682,9.95019487 C123.647426,15.8119385 123.647426,25.3528615 117.785682,31.2146051 L117.785682,31.2146051 Z" id="Fill-1" fill="#CC83BC" fill-rule="nonzero"></path>
                <polygon id="Path" fill="#FFFFFF" points="11.5949128 98.2505026 29.4820923 116.140964 7.00660513 120.729272"></polygon>
                <polygon id="Path" fill="#FFFFFF" points="103.039426 45.8066051 81.9292718 24.6964513 92.3957333 14.2267077 113.509169 35.3368615"></polygon>
                <polygon id="Path" fill="#F8E81C" points="35.1009641 113.899323 13.8365538 92.6349128 77.9218872 28.5495795 99.1862974 49.8139897"></polygon>
            </g>
        </g>
    </g>
</svg>