<?xml version="1.0" encoding="utf-8"?>
<!-- Generator: Adobe Illustrator 16.0.0, SVG Export Plug-In . SVG Version: 6.00 Build 0)  -->
<!DOCTYPE svg PUBLIC "-//W3C//DTD SVG 1.1//EN" "http://www.w3.org/Graphics/SVG/1.1/DTD/svg11.dtd">
<svg version="1.1" id="Layer_1" xmlns="http://www.w3.org/2000/svg" xmlns:xlink="http://www.w3.org/1999/xlink" x="0px" y="0px"
	 width="256px" height="256px" viewBox="0 0 256 256" enable-background="new 0 0 256 256" xml:space="preserve">
<g>
	<g>
		<path fill="#0D131A" d="M165.646,194.218l-4.002,1.106c0.284-2.556,0.17-5.081-0.341-7.58c4.486-2.558,8.404-4.659,11.757-6.306
			l13.545,10.478l11.926,10.394l-7.924,6.816l-7.92,6.133c-2.05-1.873-5.084-5.451-9.117-10.732L165.646,194.218"/>
		<path fill="#0D131A" d="M172.888,180.501h0.597c4.26,3.124,9.114,6.9,14.567,11.332l11.672,10.053
			c0.341,0.283,0.341,0.567,0,0.852c-6.758,6.304-12.323,10.933-16.696,13.886l-0.769-0.085c-1.987-1.988-4.94-5.537-8.858-10.648
			l-7.838-10.817l-4.005,1.274v-1.615l4.177-1.45c0.282-0.113,0.51-0.026,0.682,0.257l7.578,10.136
			c3.807,4.886,6.76,8.407,8.863,10.564c3.578-2.441,8.375-6.39,14.395-11.841l-10.902-9.457c-4.94-4.032-9.401-7.496-13.377-10.394
			c-3.521,1.646-7.27,3.721-11.243,6.222l-0.513-1.535C166.611,183.881,170.503,181.639,172.888,180.501"/>
		<path fill="#0D131A" d="M87.954,74.271c1.477,1.022,2.129,5.395,1.959,13.12c-7.156-2.33-15.363-4.459-24.62-6.39
			c-9.03-1.817-16.413-2.924-22.15-3.322c1.705,4.146,3.777,7.867,6.219,11.16c-4.77-0.227-9.03-1.249-12.778-3.066
			c3.748,6.19,9.286,13.374,16.612,21.552c5.736,6.418,10.905,11.7,15.505,15.846c-2.726,1.647-5.879,3.209-9.457,4.686
			c-3.918,1.533-6.332,2.129-7.241,1.789c-4.373-1.761-12.893-12.552-25.557-32.373C13.839,77.564,8.274,66.604,9.75,64.389
			c1.59-2.385,13.346-2.357,35.269,0.085C67.508,66.973,81.82,70.239,87.954,74.271"/>
		<path fill="#0D131A" d="M199.382,18.812c2.5,1.25,2.016,11.956-1.449,32.117c-3.521,20.786-7.807,35.496-12.86,44.128
			c-0.795,1.42-6.023,2.044-15.678,1.874c2.5-6.645,5.143-15.164,7.924-25.557c3.065-11.416,4.569-18.969,4.514-22.66l-9.712,8.433
			l1.449-13.631c-4.883,2.5-11.445,6.418-19.681,11.757c-10.165,6.588-17.974,12.381-23.427,17.379
			c-1.021-2.442-1.815-4.941-2.385-7.497c-0.852-3.408-0.992-5.651-0.423-6.73c3.918-7.497,16.412-16.47,37.479-26.919
			c8.008-3.977,15.479-7.242,22.406-9.797C194.298,19.209,198.247,18.245,199.382,18.812"/>
		<path fill="#9999FF" d="M152.614,56.295c9.086-6.077,15.983-10.307,20.699-12.693l-1.193,13.545l9.711-8.008
			c0,4.43-1.59,12.466-4.77,24.109c-2.841,10.166-5.396,18.06-7.669,23.682l-12.01-0.426c7.156,6.417,11.67,14.085,13.543,23.001
			c1.988,9.144-0.367,17.946-7.067,26.409c-6.646,8.405-16.158,14.653-28.539,18.741c-11.698,3.862-22.83,4.402-33.396,1.619
			c-9.598-2.558-16.867-7.185-21.809-13.885c-2.896-3.977-4.515-9.23-4.855-15.763c-0.341-6.813,0.767-13.232,3.322-19.251
			c-3.351,2.271-6.786,4.174-10.308,5.707c-5.566-5.395-11.529-11.812-17.89-19.252c-6.758-7.837-11.359-13.857-13.801-18.06
			c1.987,1.022,6.247,2.044,12.778,3.066c-2.385-3.066-4.458-6.787-6.219-11.16c5.226,0.114,13.205,1.363,23.939,3.749
			c9.541,2.044,17.151,4.033,22.831,5.964v14.568c5.792-5.85,13.886-10.109,24.281-12.778c8.974-2.328,16.837-2.924,23.595-1.789
			c-2.726-3.465-5.168-8.377-7.326-14.738C135.63,68.165,143.017,62.713,152.614,56.295"/>
		<path fill="#9999FF" d="M152.357,156.479c1.532-1.135,3.805-2.271,6.813-3.406l6.986-2.473c0.17-0.853,0.541-1.59,1.108-2.215
			c0.511-0.625,0.992-0.967,1.445-1.022c0.342-0.057,0.738,0.228,1.193,0.853l0.852,1.279l7.242-0.598
			c1.818,0.34,3.037,1.078,3.662,2.215c1.537,2.839,0,7.354-4.6,13.545c-4.886,6.475-11.019,11.558-18.4,15.249
			c2.385,5.111,3.35,10.364,2.896,15.759c-0.342,4.032-1.362,7.754-3.067,11.161c-1.703,3.578-5.875,6.418-12.521,8.52l-7.67,2.215
			l-10.136,0.426c-10.677-0.965-17.719-4.713-21.128-11.244c-2.783-5.283-3.01-11.613-0.681-18.996
			c-7.441-0.284-13.887-1.45-19.339-3.494c-5.794-2.102-8.889-4.601-9.286-7.497c-0.228-1.646,0.284-3.095,1.533-4.345
			c1.079-1.135,2.328-1.846,3.748-2.129c-0.341-0.682-0.511-1.335-0.511-1.959c0.057-0.738,0.312-1.193,0.768-1.363
			c0.511-0.228,1.448-0.027,2.811,0.597l2.641,1.703l12.948-1.959c4.487-0.283,8.719-0.198,12.694,0.256L152.357,156.479"/>
		<path fill="#9999FF" d="M147.503,215.854c2.953-0.965,5.023-2.187,6.217-3.662c4.031,1.42,7.271,5.479,9.711,12.182
			c2.558,6.93,1.818,11.357-2.215,13.289c-4.655,2.215-9.371,1.052-14.141-3.491c-4.543-4.373-7.383-9.94-8.52-16.698
			L147.503,215.854"/>
		<path fill="#0D131A" d="M152.357,156.479c0.512,2.441,0.567,5.764,0.17,9.967l-4.854-2.641c0.228,1.477,0.228,4.288,0,8.434
			l-0.852,9.541l-10.82-10.733l-4.006,8.859c-1.816-1.647-3.377-3.748-4.684-6.304l-4.939,5.195l-5.71,4.687
			c-0.738-3.862-0.765-7.923-0.083-12.184l-4.6,2.387l2.469-5.963c6.189,0.112,13.263-1.022,21.214-3.407
			C143.384,161.933,148.95,159.318,152.357,156.479"/>
		<path fill="#6666CC" d="M78.668,173.517c-0.341,3.295,3.293,5.878,10.904,7.753c6.645,1.646,12.778,2.186,18.401,1.618
			l-1.617,4.856c-9.997-0.797-17.606-2.473-22.832-5.028C78.071,179.99,76.453,176.924,78.668,173.517"/>
		<path fill="#6666CC" d="M179.786,149.494c4.434,3.18,3.127,8.771-3.918,16.781c-6.476,7.27-13.006,12.182-19.594,14.737
			c6.645-4.885,12.469-10.394,17.465-16.526C179.589,157.389,181.605,152.392,179.786,149.494"/>
		<path fill="#6666CC" d="M106.696,186.294c-0.455,7.667,1.249,13.773,5.111,18.316c4.203,4.885,10.564,7.438,19.082,7.666
			c9.029,0.229,16.388-1.59,22.064-5.451c5.793-4.032,8.688-9.54,8.688-16.525c0.908,19.535-9.569,28.707-31.436,27.516
			c-9.825-0.512-16.753-2.812-20.786-6.9C104.367,205.746,103.459,197.539,106.696,186.294"/>
		<path fill="#6666CC" d="M142.732,228.633c-1.535-2.044-2.615-4.146-3.24-6.304l-0.682-4.855c2.782,0,5.739-0.566,8.862-1.703
			c2.84-1.021,4.941-2.187,6.306-3.492l2.809,2.386l2.727,2.726c-3.805-0.283-7.692,0.823-11.67,3.322
			C143.698,223.267,141.991,225.907,142.732,228.633"/>
		<path fill="#0D131A" d="M124.159,135.012c-0.114-0.397,0.312-0.738,1.279-1.022l1.532,0.085c0.113,0.341-0.313,0.682-1.278,1.022
			L124.159,135.012"/>
		<path fill="#F09CB4" d="M82.672,147.362c1.25-1.307,3.238-1.76,5.964-1.363c2.896,0.398,5.48,1.562,7.752,3.495
			c2.896,2.441,4.742,4.997,5.537,7.666c0.738,2.328,0.511,4.203-0.682,5.623c-1.079,1.249-2.924,1.646-5.537,1.192
			c-2.555-0.454-5.083-1.62-7.581-3.495c-2.613-1.931-4.487-4.285-5.624-7.068C81.365,150.687,81.423,148.669,82.672,147.362"/>
		<path fill="#F09CB4" d="M168.458,122.744c1.705,0.625,2.67,2.328,2.896,5.112c0.17,2.611-0.283,5.367-1.363,8.263
			c-1.021,2.783-2.726,5.168-5.109,7.155c-2.557,2.044-4.801,2.612-6.731,1.704c-1.703-0.795-2.67-2.584-2.896-5.367
			c-0.17-2.782,0.428-5.82,1.791-9.115c1.248-3.01,2.98-5.225,5.195-6.645C164.396,122.375,166.472,122.005,168.458,122.744"/>
		<path fill="#0D131A" d="M89.232,74.101c0.795,1.136,1.363,4.771,1.704,10.904c0.284,5.737,0.255,11.075-0.085,16.016l-2.3,1.874
			c0.227-5.622,0.227-11.188,0-16.696c-0.284-6.361-0.824-9.911-1.619-10.649c-3.92-3.863-17.464-7.099-40.635-9.713l-24.109-1.704
			c-7.212-0.114-11.046,0.284-11.5,1.192c-0.909,1.931,5.026,12.835,17.805,32.713c12.948,20.048,20.928,30.158,23.938,30.328
			c1.647,0.113,5.906-1.505,12.779-4.856c6.872-3.294,11.614-6.02,14.226-8.178l-1.193,3.578c-3.237,2.442-7.951,5.083-14.141,7.923
			c-6.248,2.953-10.337,4.373-12.268,4.258c-3.521-0.227-12.097-10.903-25.727-32.03C12.59,77.991,6.627,66.263,8.217,63.876
			c1.987-2.953,15.134-3.066,39.442-0.341C72.251,66.32,86.109,69.841,89.232,74.101"/>
		<path fill="#0D131A" d="M89.658,86.539l0.085,2.471c-5.054-2.102-12.182-4.204-21.382-6.305
			c-9.939-2.329-17.805-3.606-23.597-3.833c1.249,3.294,3.18,6.702,5.792,10.223c0.625,0.738,0.454,1.051-0.511,0.937
			c-4.771-0.625-8.406-1.363-10.904-2.215c2.726,4.373,7.412,10.336,14.056,17.889c6.417,7.27,11.842,12.864,16.271,16.782
			l-2.13,1.107c-4.544-4.089-10.194-10.08-16.953-17.975c-7.1-8.234-12.041-14.737-14.823-19.507
			c-0.284-0.511-0.341-0.91-0.17-1.193c0.17-0.228,0.568-0.228,1.193,0c2.896,1.193,6.446,2.102,10.649,2.727
			c-2.442-3.692-4.146-7.043-5.112-10.053v-0.596c0.113-0.17,0.284-0.255,0.511-0.255c5.851,0.113,14,1.277,24.45,3.492
			C77.134,82.393,84.66,84.494,89.658,86.539"/>
		<path fill="#0D131A" d="M196.316,52.292c3.521-20.162,4.229-30.782,2.129-31.861c-2.728-1.42-14.084,2.953-34.074,13.119
			c-20.616,10.563-32.344,18.827-35.184,24.79c-0.683,1.42-0.113,5.196,1.702,11.331c1.933,6.531,4.345,12.352,7.24,17.464
			c0.228,0.341,0.058,0.568-0.512,0.682c-0.625,0.057-1.079-0.142-1.363-0.596c-3.18-4.601-5.793-10.337-7.837-17.208
			c-1.874-6.363-2.442-10.424-1.704-12.184c2.783-6.588,15.08-15.477,36.887-26.664c21.244-10.961,33.566-15.448,36.975-13.46
			c2.441,1.42,1.818,13.176-1.872,35.269c-3.748,22.717-8.039,37.029-12.865,42.936c-1.08,1.25-4.715,2.044-10.904,2.385
			l-16.442-0.682c-0.738-0.114-1.275-0.483-1.615-1.107c-0.342-0.568-0.258-0.852,0.254-0.852
			c5.508,0.455,10.959,0.597,16.355,0.426c6.53-0.228,10.168-0.937,10.905-2.13C188.763,86.964,192.739,73.079,196.316,52.292"/>
		<path fill="#0D131A" d="M181.747,47.521c0.342-0.284,0.596-0.369,0.77-0.256l0.255,0.767c-0.683,6.929-2.271,15.532-4.771,25.812
			c-2.668,10.733-5.197,18.486-7.582,23.256l-2.387-0.17c2.215-4.43,4.658-11.671,7.326-21.723c2.5-9.314,4.202-17.237,5.11-23.768
			l-8.688,6.985l-0.681,0.255c-0.229-0.113-0.312-0.369-0.254-0.767l1.533-12.864c-5.396,2.784-12.354,7.128-20.873,13.034
			c-8.858,6.136-15.704,11.418-20.531,15.848l-0.936-2.215c5.055-4.544,12.381-9.996,21.979-16.356
			c9.087-6.077,16.271-10.394,21.554-12.949c0.682-0.34,0.967-0.113,0.852,0.682c-0.565,3.806-0.994,7.753-1.279,11.842
			L181.747,47.521"/>
		<path fill="#0D131A" d="M138.386,135.521c0.285-0.624,0.568-0.908,0.853-0.853c0.342,0.058,0.455,0.397,0.342,1.022
			c-0.625,4.486-4.006,7.723-10.139,9.711c-6.19,1.989-10.961,1.334-14.312-1.959c-0.455-0.455-0.567-0.824-0.341-1.107l1.109,0.17
			c3.806,2.441,8.147,2.868,13.031,1.277C133.814,142.194,136.967,139.44,138.386,135.521"/>
		<path fill="#0D131A" d="M157.896,180.246l1.616-0.853c2.216,4.43,3.324,9.202,3.324,14.312c-0.057,4.259-1.053,8.146-2.983,11.67
			c-1.816,3.294-4.229,5.906-7.238,7.838l-1.193,0.17c-0.17-0.341,0-0.652,0.512-0.937c5.851-3.919,8.804-10.279,8.859-19.082
			C160.905,188.768,159.941,184.393,157.896,180.246"/>
		<path fill="#0D131A" d="M108.995,183.228c-3.009,7.667-3.889,14.058-2.64,19.168c1.249,5.226,5.226,9.229,11.927,12.012
			c6.758,2.781,14.11,3.464,22.062,2.044c0.738-0.113,1.191-0.028,1.361,0.256c0.115,0.284-0.283,0.54-1.191,0.767
			c-8.575,1.988-16.299,1.705-23.171-0.852c-7.213-2.669-11.584-7.241-13.118-13.715c-1.307-5.51-0.426-12.153,2.642-19.936
			c3.806-7.78,6.047-12.978,6.729-15.59l1.791,0.171C114.704,170.166,112.573,175.392,108.995,183.228"/>
		<path fill="#0D131A" d="M88.721,169.938l-0.511-0.085l-2.896-1.704l-1.789-0.341c-0.455,0.341-0.256,1.447,0.596,3.321
			c0.284,0.568,0.284,0.967,0,1.193c-0.227,0.17-0.568,0-1.023-0.512c-0.682-0.795-1.107-1.874-1.278-3.237
			c-0.114-1.306,0.085-2.101,0.596-2.385l3.067,0.255c1.193,0.455,2.243,1.021,3.152,1.704l15.675-1.874l6.047,1.619l-12.183,0.766
			L88.721,169.938"/>
		<path fill="#0D131A" d="M85.824,184.591c-5.509-2.157-8.377-4.741-8.604-7.752c-0.114-1.42,0.341-2.867,1.363-4.345
			c1.079-1.477,2.442-2.471,4.089-2.98l0.768,1.361c-1.478,0.513-2.642,1.308-3.493,2.387c-0.909,1.078-1.335,2.271-1.278,3.577
			c0.113,2.044,2.555,4.003,7.327,5.877c5.282,1.988,12.125,3.295,20.532,3.92l-0.341,2.045
			C97.779,187.998,90.992,186.636,85.824,184.591"/>
		<path fill="#0D131A" d="M146.991,163.72l0.17-0.597h0.682l3.832,2.045c0.398-2.84,0.455-5.564,0.17-8.178l1.281-1.193
			c0.51,4.658,0.537,8.375,0.082,11.16c-0.057,0.512-0.34,0.625-0.852,0.341l-4.002-2.386v8.604l-0.769,8.944
			c-0.113,0.795-0.455,0.908-1.022,0.342l-10.394-10.395c-1.021,3.124-2.244,5.879-3.664,8.264l-0.936,0.17
			c-1.874-1.702-3.293-3.72-4.26-6.048c-3.294,4.089-6.814,7.384-10.563,9.883c-0.455,0.283-0.738,0.142-0.852-0.427l-0.512-5.878
			c-0.057-2.386,0.027-4.26,0.254-5.622l-4.172,2.386l0.766-2.216l4.005-2.215c0.795-0.567,1.105-0.396,0.936,0.513
			c-0.228,1.306-0.311,3.207-0.254,5.706c0.057,2.271,0.197,4.032,0.424,5.281c3.352-2.441,6.588-5.509,9.712-9.2
			c0.113-0.17,0.283-0.255,0.511-0.255l0.512,0.512c0.852,1.874,2.102,3.635,3.748,5.28c1.533-2.781,2.67-5.338,3.408-7.667
			c0.17-0.566,0.511-0.651,1.021-0.255l9.969,9.285l0.599-8.008L146.991,163.72"/>
		<path fill="#0D131A" d="M166.669,149.407l-0.596,2.214c-4.883,1.478-9.711,3.465-14.482,5.964l5.025-4.343
			C159.968,151.652,163.318,150.373,166.669,149.407"/>
		<path fill="#0D131A" d="M155.169,181.864c-0.17-0.284,0.084-0.653,0.767-1.107c8.461-4.714,15.25-10.277,20.36-16.697
			c4.826-6.076,6.221-10.394,4.172-12.947c-1.307-1.534-4.43-1.788-9.369-0.766l-0.766-1.874c5.68-1.139,9.453-0.625,11.328,1.532
			c2.842,3.352,1.65,8.433-3.578,15.248c-5.338,6.985-12.521,12.522-21.551,16.611C155.794,182.205,155.339,182.205,155.169,181.864
			"/>
		<path fill="#0D131A" d="M168.458,146.341c0.738-0.171,1.477,0.312,2.215,1.449c0.683,1.022,1.105,2.158,1.277,3.407
			c0.057,0.625-0.084,0.966-0.426,1.022c-0.283,0.057-0.541-0.2-0.769-0.77c-0.795-2.158-1.477-3.18-2.045-3.065
			c-0.34,0.057-0.707,0.453-1.104,1.191c-0.453,0.796-0.824,1.791-1.109,2.983l-0.682,0.682c-0.341-0.057-0.511-0.371-0.511-0.938
			c0-1.421,0.371-2.753,1.109-4.003C167.038,147.106,167.72,146.454,168.458,146.341"/>
		<path fill="#0D131A" d="M157.808,238.515l-1.872,0.088c0-1.705-0.398-3.521-1.193-5.453c-0.853-1.986-1.93-3.521-3.236-4.6
			c-0.567-0.453-0.738-0.824-0.512-1.109l1.193,0.088c1.477,0.795,2.782,2.385,3.918,4.771
			C157.186,234.513,157.751,236.584,157.808,238.515"/>
		<path fill="#0D131A" d="M164.028,234.256l-1.449,2.556c0.113-1.533-0.254-3.352-1.105-5.451c-0.907-2.329-2.073-4.146-3.493-5.452
			c-0.513-0.511-0.652-0.909-0.427-1.192c0.229-0.228,0.625-0.143,1.193,0.256c1.363,0.908,2.557,2.356,3.578,4.344
			C163.177,230.962,163.745,232.608,164.028,234.256"/>
		<path fill="#0D131A" d="M141.706,229.313c-2.441-3.86-3.747-7.809-3.918-11.84l1.961-0.256c0.283,3.805,1.533,7.496,3.748,11.073
			c2.215,3.578,4.828,6.19,7.838,7.838c3.293,1.816,6.473,2.044,9.541,0.681c1.646-0.681,2.529-2.555,2.644-5.621
			c0.057-3.123-0.714-6.275-2.304-9.455c-0.852-1.647-2.014-3.266-3.49-4.855c-1.59-1.646-3.268-2.953-5.026-3.919l1.449-1.022
			c4.145,2.328,7.125,5.254,8.942,8.774c1.76,3.636,2.498,7.157,2.215,10.563c-0.342,3.466-1.59,5.707-3.748,6.729l-10.817-0.254
			C147.22,236.103,144.208,233.29,141.706,229.313"/>
		<path fill="#0D131A" d="M138.046,88.413c-7.895-1.249-16.469-0.482-25.727,2.3c-9.883,2.896-18.034,7.553-24.451,13.97
			c-0.738,0.682-1.221,0.909-1.448,0.682c-0.284-0.284-0.085-0.795,0.597-1.533c5.792-6.872,13.999-11.926,24.62-15.163
			c4.715-1.363,9.429-2.187,14.142-2.471l12.352,0.937c1.418,0.398,2.156,0.767,2.215,1.107L138.046,88.413"/>
		<path fill="#0D131A" d="M157.468,95.824c2.728,2.044,5.256,4.628,7.584,7.752c2.328,3.01,4.088,6.106,5.281,9.286
			c4.26,10.904,3.18,21.297-3.238,31.178c-6.586,9.997-17.235,17.236-31.944,21.725c-13.914,4.202-26.637,4.346-38.167,0.427
			c-11.415-3.92-18.572-10.708-21.468-20.362c-1.59-5.509-1.988-11.272-1.193-17.292c0.795-6.078,2.669-11.131,5.623-15.164
			c0.625-0.795,1.05-1.136,1.277-1.022c0.284,0.17,0.199,0.71-0.255,1.619c-4.998,10.05-5.935,20.387-2.811,31.007
			c2.442,8.291,8.775,14.396,18.997,18.315c11.133,4.26,23.57,4.315,37.314,0.171c13.006-3.919,22.746-10.31,29.222-19.169
			c6.871-9.428,8.348-19.564,4.43-30.412c-2.557-6.986-6.475-12.779-11.756-17.379c-1.08-0.909-1.42-1.448-1.023-1.619
			C155.681,94.66,156.39,94.973,157.468,95.824"/>
		<path fill="#9999FF" d="M108.143,188.168c2.328,1.988,4.431,4.827,6.305,8.519c1.76,3.578,2.669,7.156,2.726,10.735
			c0.058,4.486-1.42,7.354-4.43,8.604c-3.181,1.307-6.474,0.795-9.882-1.533c-3.124-2.102-5.565-5.111-7.326-9.029
			c-1.704-3.919-2.385-7.867-2.045-11.843c0.455-4.315,2.045-6.929,4.771-7.837C101.669,184.647,104.964,185.442,108.143,188.168"/>
		<path fill="#6666CC" d="M95.45,204.354c2.612,5.68,6.588,8.149,11.927,7.412c5.112-0.683,8.262-3.465,9.455-8.35
			c0.909,3.805,0.625,6.93-0.852,9.37c-1.363,2.272-3.407,3.521-6.134,3.749c-2.781,0.283-5.451-0.568-8.007-2.557
			C99,211.767,96.87,208.558,95.45,204.354"/>
		<path fill="#0D131A" d="M116.067,207.763c-0.058-3.181-0.996-6.615-2.813-10.308c-2.441-4.827-5.023-8.095-7.751-9.798
			c-2.5-1.59-5.027-1.761-7.583-0.512c-2.215,1.079-3.407,3.465-3.578,7.156c-0.171,3.69,0.682,7.412,2.556,11.16
			c2.044,4.09,4.657,7.042,7.838,8.859c3.01,1.646,5.678,1.874,8.007,0.681C115.015,213.81,116.124,211.397,116.067,207.763
			 M97.154,185.442c2.953-1.42,5.964-1.393,9.032,0.085c3.407,1.763,6.475,5.283,9.2,10.563c1.932,3.977,2.84,7.922,2.727,11.842
			c-0.114,4.203-1.506,7.014-4.176,8.434c-2.896,1.646-6.161,1.646-9.796,0c-3.976-1.762-7.157-5.025-9.542-9.796
			c-2.101-4.263-2.839-8.577-2.215-12.95C92.952,189.418,94.542,186.691,97.154,185.442"/>
		<path fill="#0D131A" d="M101.584,185.527l1.62,0.256c-0.739,0.965-0.995,2.472-0.768,4.517c0.284,2.271,1.137,4.456,2.556,6.559
			c0.341,0.511,0.369,0.882,0.085,1.107c-0.284,0.172-0.653,0.027-1.107-0.427c-1.591-1.647-2.613-3.774-3.067-6.388
			C100.391,188.652,100.618,186.776,101.584,185.527"/>
		<path fill="#0D131A" d="M95.28,188.427l2.044-1.791c-0.625,1.59-0.681,3.664-0.17,6.221c0.455,2.556,1.278,4.625,2.471,6.217
			c0.454,0.511,0.54,0.882,0.255,1.107c-0.284,0.229-0.653,0.114-1.107-0.341c-1.363-1.192-2.385-2.952-3.067-5.28
			C95.025,192.287,94.883,190.243,95.28,188.427"/>
	</g>
	<ellipse fill="#0D131A" cx="147.377" cy="118.476" rx="9.37" ry="9.418"/>
	<path fill="#FFFFFF" d="M146.834,118.301c-1.078,0.738-2.216,0.938-3.406,0.597c-1.08-0.284-1.904-0.937-2.473-1.959
		c-0.568-0.909-0.738-1.902-0.513-2.981c0.285-1.136,0.939-1.959,1.961-2.47c0.967-0.568,1.961-0.71,2.984-0.426
		c0.965,0.227,1.729,0.795,2.297,1.704c0.568,0.909,0.77,1.931,0.6,3.067C148.112,116.91,147.629,117.733,146.834,118.301"/>
	<ellipse fill="#0D131A" cx="100.292" cy="127.477" rx="9.353" ry="9.418"/>
	<path fill="#FFFFFF" d="M98.261,119.104c1.138-0.284,2.217-0.113,3.241,0.512c0.967,0.625,1.535,1.42,1.707,2.385
		c0.227,1.136,0.057,2.158-0.512,3.065c-0.511,0.854-1.28,1.421-2.303,1.704c-1.024,0.283-1.991,0.113-2.9-0.512
		c-0.91-0.567-1.507-1.362-1.792-2.385c-0.284-1.136-0.17-2.158,0.342-3.066C96.499,119.957,97.237,119.389,98.261,119.104"/>
</g>
</svg>
