<?xml version="1.0" encoding="UTF-8"?>
<svg width="256px" height="256px" viewBox="0 0 256 256" version="1.1" xmlns="http://www.w3.org/2000/svg" xmlns:xlink="http://www.w3.org/1999/xlink">
    <!-- Generator: Sketch 42 (36781) - http://www.bohemiancoding.com/sketch -->
    <title>icon-avatar</title>
    <desc>Created with Sketch.</desc>
    <defs></defs>
    <g id="Page-1" stroke="none" stroke-width="1" fill="none" fill-rule="evenodd">
        <g id="icon-avatar">
            <ellipse id="Oval-3" fill="#FFFFFF" cx="130" cy="130" rx="112" ry="112"></ellipse>
            <g id="User" transform="translate(34.000000, 34.000000)" fill="#3C3F43">
                <path d="M95.4846022,182.285292 C66.3634923,182.285292 40.549589,167.845908 24.7899874,145.741292 C33.9155191,137.391754 47.4785065,131.016369 63.306906,127.328985 C72.2653574,134.112985 83.415509,138.140062 95.4846022,138.140062 C107.553695,138.140062 118.703847,134.112985 127.662298,127.328985 C143.485784,131.016369 157.053685,137.391754 166.179217,145.741292 C150.419615,167.845908 124.605712,182.285292 95.4846022,182.285292 M50.3237854,84.5671385 C50.3237854,59.6169846 70.5847264,39.3240615 95.4846022,39.3240615 C120.384478,39.3240615 140.645419,59.6169846 140.645419,84.5671385 C140.645419,109.512369 120.384478,129.810215 95.4846022,129.810215 C70.5847264,129.810215 50.3237854,109.512369 50.3237854,84.5671385 M95.4846022,8.33329231 C143.358016,8.33329231 182.302464,47.3486769 182.302464,95.3092923 C182.302464,111.082831 178.091058,125.886523 170.734612,138.652062 C161.741761,130.829292 149.318851,124.655754 134.984346,120.643446 C143.662692,111.117292 148.965034,98.4502154 148.965034,84.5671385 C148.965034,55.0237538 124.974272,30.9892923 95.4846022,30.9892923 C65.9949328,30.9892923 42.0041703,55.0237538 42.0041703,84.5671385 C42.0041703,98.4502154 47.3065121,111.117292 55.9848584,120.643446 C41.6503532,124.655754 29.227443,130.829292 20.2345927,138.652062 C12.8781462,125.886523 8.66674036,111.082831 8.66674036,95.3092923 C8.66674036,47.3486769 47.6111879,8.33329231 95.4846022,8.33329231 M95.4846022,-0.00147692308 C43.0263085,-0.00147692308 0.347125259,42.7554462 0.347125259,95.3092923 C0.347125259,147.863138 43.0263085,190.620062 95.4846022,190.620062 C147.942896,190.620062 190.622079,147.863138 190.622079,95.3092923 C190.622079,42.7554462 147.942896,-0.00147692308 95.4846022,-0.00147692308" id="Fill-1"></path>
            </g>
        </g>
    </g>
</svg>